<svg width="123" height="34" viewBox="0 0 123 34" fill="none" xmlns="http://www.w3.org/2000/svg">
<path d="M27.0896 22C26.939 22 26.8035 21.9473 26.683 21.8419C26.5625 21.7214 26.5023 21.5783 26.5023 21.4126V6.77306C26.5023 6.60739 26.5625 6.47183 26.683 6.36641C26.8035 6.24592 26.939 6.18567 27.0896 6.18567H33.5283C35.5767 6.18567 37.1807 6.65257 38.3404 7.58637C39.5152 8.52017 40.1026 9.82297 40.1026 11.4948C40.1026 12.5491 39.8616 13.4452 39.3796 14.1832C38.8977 14.9212 38.2651 15.5011 37.4819 15.9228L40.4189 21.2545C40.4641 21.3448 40.4866 21.4277 40.4866 21.503C40.4866 21.6385 40.4415 21.759 40.3511 21.8644C40.2607 21.9548 40.1478 22 40.0122 22H36.1942C35.908 22 35.6896 21.9322 35.539 21.7967C35.3884 21.6461 35.2905 21.5105 35.2453 21.39L32.9861 16.7361H31.3595V21.4126C31.3595 21.5783 31.2993 21.7214 31.1788 21.8419C31.0734 21.9473 30.9378 22 30.7721 22H27.0896ZM31.3595 13.0084H33.5057C34.0329 13.0084 34.4245 12.8653 34.6805 12.5792C34.9366 12.278 35.0646 11.909 35.0646 11.4722C35.0646 11.0203 34.9366 10.6363 34.6805 10.32C34.4395 10.0037 34.048 9.84556 33.5057 9.84556H31.3595V13.0084ZM47.856 22.2259C45.9734 22.2259 44.4748 21.744 43.3602 20.78C42.2608 19.8011 41.696 18.31 41.6658 16.3068C41.6658 16.2466 41.6658 16.1713 41.6658 16.0809C41.6658 15.9755 41.6658 15.9002 41.6658 15.855C41.711 14.6049 41.9821 13.5506 42.4791 12.6921C42.9912 11.8186 43.6991 11.1559 44.6028 10.7041C45.5215 10.2522 46.5984 10.0263 47.8334 10.0263C49.2191 10.0263 50.3637 10.3049 51.2674 10.8622C52.1861 11.4044 52.8714 12.1349 53.3233 13.0536C53.7751 13.9573 54.001 14.9739 54.001 16.1035V16.7361C54.001 16.8867 53.9408 17.0223 53.8203 17.1427C53.6998 17.2632 53.5567 17.3235 53.391 17.3235H46.4327C46.4327 17.3235 46.4327 17.3385 46.4327 17.3687C46.4327 17.3988 46.4327 17.4289 46.4327 17.459C46.4327 17.8205 46.4779 18.1443 46.5683 18.4305C46.6737 18.7016 46.8319 18.92 47.0427 19.0856C47.2536 19.2363 47.5096 19.3116 47.8108 19.3116C48.0066 19.3116 48.1723 19.2814 48.3079 19.2212C48.4434 19.161 48.5564 19.0856 48.6467 18.9953C48.7522 18.8898 48.8425 18.792 48.9178 18.7016C49.0534 18.566 49.1663 18.4832 49.2567 18.4531C49.3471 18.4079 49.4826 18.3853 49.6634 18.3853H53.2103C53.3458 18.3853 53.4588 18.4305 53.5492 18.5208C53.6546 18.6112 53.6998 18.7242 53.6847 18.8597C53.6697 19.1308 53.5416 19.4622 53.3007 19.8538C53.0597 20.2303 52.6982 20.5993 52.2163 20.9608C51.7494 21.3222 51.1469 21.6235 50.4089 21.8644C49.6709 22.1054 48.8199 22.2259 47.856 22.2259ZM46.4327 14.7932H49.2341V14.748C49.2341 14.3413 49.1814 13.9949 49.076 13.7088C48.9705 13.4226 48.8124 13.2118 48.6015 13.0762C48.3907 12.9256 48.1346 12.8503 47.8334 12.8503C47.5322 12.8503 47.2762 12.9256 47.0653 13.0762C46.8544 13.2118 46.6963 13.4226 46.5909 13.7088C46.4854 13.9949 46.4327 14.3413 46.4327 14.748V14.7932ZM56.6753 22C56.5247 22 56.3892 21.9473 56.2687 21.8419C56.1482 21.7214 56.0879 21.5783 56.0879 21.4126V6.77306C56.0879 6.60739 56.1482 6.47183 56.2687 6.36641C56.3892 6.24592 56.5247 6.18567 56.6753 6.18567H63.8821C65.2527 6.18567 66.3748 6.36641 67.2483 6.72788C68.1219 7.08935 68.7695 7.60896 69.1912 8.28672C69.613 8.96447 69.8238 9.80037 69.8238 10.7944C69.8238 11.3065 69.7184 11.7659 69.5075 12.1725C69.3117 12.5641 69.0707 12.8955 68.7846 13.1666C68.4984 13.4226 68.2273 13.6109 67.9713 13.7314C68.5587 13.9874 69.0707 14.4242 69.5075 15.0417C69.9443 15.6441 70.1627 16.337 70.1627 17.1201C70.1627 18.1744 69.9217 19.0631 69.4398 19.786C68.9729 20.5089 68.2876 21.0587 67.3839 21.4352C66.4953 21.8117 65.4033 22 64.1081 22H56.6753ZM60.9452 18.5886H63.5884C64.1005 18.5886 64.4771 18.438 64.718 18.1368C64.959 17.8205 65.0795 17.4741 65.0795 17.0976C65.0795 16.706 64.9515 16.3671 64.6955 16.0809C64.4394 15.7797 64.0704 15.6291 63.5884 15.6291H60.9452V18.5886ZM60.9452 12.3081H63.3625C63.8445 12.3081 64.1984 12.1725 64.4243 11.9014C64.6503 11.6303 64.7632 11.314 64.7632 10.9526C64.7632 10.5911 64.6503 10.2748 64.4243 10.0037C64.1984 9.7326 63.8445 9.59705 63.3625 9.59705H60.9452V12.3081ZM77.9964 22.2259C76.671 22.2259 75.549 22.0301 74.6302 21.6385C73.7266 21.2469 73.0337 20.6746 72.5518 19.9215C72.0698 19.1534 71.7987 18.2347 71.7385 17.1653C71.7234 16.849 71.7159 16.5026 71.7159 16.1261C71.7159 15.7496 71.7234 15.4032 71.7385 15.0869C71.7987 14.0025 72.0849 13.0837 72.597 12.3307C73.1091 11.5776 73.8169 11.0053 74.7206 10.6137C75.6393 10.2221 76.7313 10.0263 77.9964 10.0263C79.2616 10.0263 80.346 10.2221 81.2497 10.6137C82.1684 11.0053 82.8838 11.5776 83.3959 12.3307C83.908 13.0837 84.1941 14.0025 84.2544 15.0869C84.2845 15.4032 84.2996 15.7496 84.2996 16.1261C84.2996 16.5026 84.2845 16.849 84.2544 17.1653C84.1941 18.2347 83.923 19.1534 83.4411 19.9215C82.9591 20.6746 82.2588 21.2469 81.34 21.6385C80.4364 22.0301 79.3218 22.2259 77.9964 22.2259ZM77.9964 19.0405C78.5537 19.0405 78.9378 18.8748 79.1486 18.5434C79.3595 18.2121 79.48 17.7151 79.5101 17.0524C79.5251 16.8265 79.5327 16.5177 79.5327 16.1261C79.5327 15.7345 79.5251 15.4258 79.5101 15.1998C79.48 14.5522 79.3595 14.0627 79.1486 13.7314C78.9378 13.385 78.5537 13.2118 77.9964 13.2118C77.4542 13.2118 77.0777 13.385 76.8668 13.7314C76.656 14.0627 76.528 14.5522 76.4828 15.1998C76.4677 15.4258 76.4602 15.7345 76.4602 16.1261C76.4602 16.5177 76.4677 16.8265 76.4828 17.0524C76.528 17.7151 76.656 18.2121 76.8668 18.5434C77.0777 18.8748 77.4542 19.0405 77.9964 19.0405ZM92.1384 22.2259C90.813 22.2259 89.691 22.0301 88.7722 21.6385C87.8686 21.2469 87.1757 20.6746 86.6938 19.9215C86.2118 19.1534 85.9407 18.2347 85.8805 17.1653C85.8654 16.849 85.8579 16.5026 85.8579 16.1261C85.8579 15.7496 85.8654 15.4032 85.8805 15.0869C85.9407 14.0025 86.2269 13.0837 86.739 12.3307C87.251 11.5776 87.9589 11.0053 88.8626 10.6137C89.7813 10.2221 90.8733 10.0263 92.1384 10.0263C93.4036 10.0263 94.488 10.2221 95.3917 10.6137C96.3104 11.0053 97.0258 11.5776 97.5379 12.3307C98.05 13.0837 98.3361 14.0025 98.3964 15.0869C98.4265 15.4032 98.4416 15.7496 98.4416 16.1261C98.4416 16.5026 98.4265 16.849 98.3964 17.1653C98.3361 18.2347 98.065 19.1534 97.5831 19.9215C97.1011 20.6746 96.4008 21.2469 95.482 21.6385C94.5784 22.0301 93.4638 22.2259 92.1384 22.2259ZM92.1384 19.0405C92.6957 19.0405 93.0798 18.8748 93.2906 18.5434C93.5015 18.2121 93.622 17.7151 93.6521 17.0524C93.6671 16.8265 93.6747 16.5177 93.6747 16.1261C93.6747 15.7345 93.6671 15.4258 93.6521 15.1998C93.622 14.5522 93.5015 14.0627 93.2906 13.7314C93.0798 13.385 92.6957 13.2118 92.1384 13.2118C91.5962 13.2118 91.2197 13.385 91.0088 13.7314C90.798 14.0627 90.67 14.5522 90.6248 15.1998C90.6097 15.4258 90.6022 15.7345 90.6022 16.1261C90.6022 16.5177 90.6097 16.8265 90.6248 17.0524C90.67 17.7151 90.798 18.2121 91.0088 18.5434C91.2197 18.8748 91.5962 19.0405 92.1384 19.0405ZM107.004 22C105.98 22 105.076 21.8494 104.293 21.5482C103.525 21.2469 102.922 20.7574 102.486 20.0797C102.064 19.3869 101.853 18.4757 101.853 17.3461V13.7088H100.068C99.9025 13.7088 99.7594 13.6561 99.6389 13.5506C99.5335 13.4301 99.4808 13.2871 99.4808 13.1214V10.8396C99.4808 10.6739 99.5335 10.5384 99.6389 10.4329C99.7594 10.3125 99.9025 10.2522 100.068 10.2522H101.853V6.54714C101.853 6.38147 101.906 6.24592 102.011 6.14049C102.132 6.02 102.275 5.95975 102.44 5.95975H105.716C105.882 5.95975 106.017 6.02 106.123 6.14049C106.243 6.24592 106.304 6.38147 106.304 6.54714V10.2522H109.15C109.316 10.2522 109.451 10.3125 109.557 10.4329C109.677 10.5384 109.738 10.6739 109.738 10.8396V13.1214C109.738 13.2871 109.677 13.4301 109.557 13.5506C109.451 13.6561 109.316 13.7088 109.15 13.7088H106.304V16.962C106.304 17.3988 106.394 17.7452 106.575 18.0012C106.755 18.2422 107.042 18.3627 107.433 18.3627H109.331C109.497 18.3627 109.632 18.4229 109.738 18.5434C109.858 18.6489 109.918 18.7844 109.918 18.9501V21.4126C109.918 21.5783 109.858 21.7214 109.738 21.8419C109.632 21.9473 109.497 22 109.331 22H107.004Z" fill="#35A9F2"/>
<circle cx="19.2905" cy="15.667" r="2.48293" fill="#35A9F2"/>
<circle cx="18.3359" cy="10.1281" r="2.29193" fill="#35A9F2"/>
<circle cx="8.78592" cy="5.9263" r="1.90994" fill="#35A9F2"/>
<circle cx="3.81897" cy="7.83624" r="1.52795" fill="#35A9F2"/>
<circle cx="1.14597" cy="12.8021" r="1.14597" fill="#35A9F2"/>
<circle cx="1.52765" cy="17.768" r="0.763977" fill="#35A9F2"/>
<circle cx="4.20132" cy="21.2058" r="0.381989" fill="#35A9F2"/>
<circle cx="14.3246" cy="6.1173" r="2.10094" fill="#35A9F2"/>
</svg>
