<svg width="170" height="46" viewBox="0 0 170 46" fill="none" xmlns="http://www.w3.org/2000/svg">
<path d="M37.4411 30C37.2329 30 37.0456 29.9271 36.8791 29.7814C36.7125 29.6149 36.6293 29.4171 36.6293 29.1882V8.95473C36.6293 8.72575 36.7125 8.5384 36.8791 8.39269C37.0456 8.22615 37.2329 8.14289 37.4411 8.14289H46.3401C49.1711 8.14289 51.388 8.78819 52.9909 10.0788C54.6146 11.3694 55.4264 13.17 55.4264 15.4806C55.4264 16.9378 55.0933 18.1763 54.4272 19.1963C53.7611 20.2163 52.8868 21.0178 51.8044 21.6006L55.8635 28.9696C55.926 29.0945 55.9572 29.209 55.9572 29.3131C55.9572 29.5004 55.8948 29.6669 55.7699 29.8127C55.645 29.9376 55.4888 30 55.3015 30H50.0246C49.6291 30 49.3272 29.9063 49.1191 29.719C48.9109 29.5108 48.7756 29.3235 48.7131 29.1569L45.5907 22.7247H43.3425V29.1882C43.3425 29.4171 43.2593 29.6149 43.0927 29.7814C42.947 29.9271 42.7597 30 42.5307 30H37.4411ZM43.3425 17.5727H46.3089C47.0374 17.5727 47.5786 17.3749 47.9325 16.9794C48.2864 16.5631 48.4633 16.0531 48.4633 15.4494C48.4633 14.8249 48.2864 14.2941 47.9325 13.857C47.5995 13.4198 47.0582 13.2012 46.3089 13.2012H43.3425V17.5727ZM66.1425 30.3122C63.5404 30.3122 61.4692 29.6461 59.9288 28.3139C58.4092 26.9608 57.6286 24.9 57.587 22.1314C57.587 22.0482 57.587 21.9441 57.587 21.8192C57.587 21.6735 57.587 21.5694 57.587 21.507C57.6494 19.7792 58.0241 18.3221 58.7111 17.1355C59.4188 15.9282 60.3972 15.0123 61.6462 14.3878C62.9159 13.7633 64.4043 13.451 66.1112 13.451C68.0263 13.451 69.6084 13.8361 70.8574 14.6063C72.1272 15.3557 73.0743 16.3653 73.6988 17.6351C74.3233 18.8841 74.6355 20.2892 74.6355 21.8504V22.7247C74.6355 22.9329 74.5523 23.1202 74.3857 23.2867C74.2192 23.4533 74.0214 23.5365 73.7925 23.5365H64.1753C64.1753 23.5365 64.1753 23.5574 64.1753 23.599C64.1753 23.6406 64.1753 23.6823 64.1753 23.7239C64.1753 24.2235 64.2378 24.671 64.3627 25.0665C64.5084 25.4412 64.727 25.7431 65.0184 25.972C65.3098 26.1802 65.6637 26.2843 66.08 26.2843C66.3506 26.2843 66.5796 26.2427 66.767 26.1594C66.9543 26.0761 67.1104 25.972 67.2353 25.8471C67.381 25.7014 67.5059 25.5661 67.61 25.4412C67.7974 25.2539 67.9535 25.1394 68.0784 25.0978C68.2033 25.0353 68.3906 25.0041 68.6404 25.0041H73.5427C73.73 25.0041 73.8861 25.0665 74.011 25.1914C74.1567 25.3163 74.2192 25.4725 74.1984 25.6598C74.1776 26.0345 74.0006 26.4925 73.6676 27.0337C73.3345 27.5541 72.8349 28.0641 72.1688 28.5637C71.5235 29.0633 70.6908 29.4796 69.6708 29.8127C68.6508 30.1457 67.4747 30.3122 66.1425 30.3122ZM64.1753 20.0394H68.0472V19.977C68.0472 19.4149 67.9743 18.9361 67.8286 18.5406C67.6829 18.1451 67.4643 17.8537 67.1729 17.6663C66.8814 17.4582 66.5276 17.3541 66.1112 17.3541C65.6949 17.3541 65.341 17.4582 65.0496 17.6663C64.7582 17.8537 64.5396 18.1451 64.3939 18.5406C64.2482 18.9361 64.1753 19.4149 64.1753 19.977V20.0394ZM78.3317 30C78.1235 30 77.9362 29.9271 77.7697 29.7814C77.6031 29.6149 77.5199 29.4171 77.5199 29.1882V8.95473C77.5199 8.72575 77.6031 8.5384 77.7697 8.39269C77.9362 8.22615 78.1235 8.14289 78.3317 8.14289H88.2923C90.1866 8.14289 91.7374 8.39268 92.9448 8.89228C94.1521 9.39187 95.0472 10.11 95.6301 11.0468C96.2129 11.9835 96.5043 13.1388 96.5043 14.5127C96.5043 15.2204 96.3586 15.8553 96.0672 16.4174C95.7966 16.9586 95.4635 17.4165 95.068 17.7912C94.6725 18.1451 94.2978 18.4053 93.9439 18.5719C94.7558 18.9257 95.4635 19.5294 96.0672 20.3829C96.6709 21.2155 96.9727 22.1731 96.9727 23.2555C96.9727 24.7127 96.6396 25.9408 95.9735 26.94C95.3282 27.9392 94.3811 28.699 93.1321 29.2194C91.9039 29.7398 90.3948 30 88.6046 30H78.3317ZM84.2331 25.2851H87.8864C88.5941 25.2851 89.1146 25.0769 89.4476 24.6606C89.7807 24.2235 89.9472 23.7447 89.9472 23.2243C89.9472 22.6831 89.7703 22.2147 89.4164 21.8192C89.0625 21.4029 88.5525 21.1947 87.8864 21.1947H84.2331V25.2851ZM84.2331 16.6047H87.5741C88.2403 16.6047 88.7295 16.4174 89.0417 16.0427C89.3539 15.668 89.5101 15.2308 89.5101 14.7312C89.5101 14.2317 89.3539 13.7945 89.0417 13.4198C88.7295 13.0451 88.2403 12.8578 87.5741 12.8578H84.2331V16.6047ZM107.8 30.3122C105.968 30.3122 104.417 30.0416 103.147 29.5004C101.898 28.9592 100.941 28.1682 100.275 27.1274C99.6086 26.0657 99.2339 24.7959 99.1506 23.318C99.1298 22.8808 99.1194 22.4021 99.1194 21.8816C99.1194 21.3612 99.1298 20.8825 99.1506 20.4453C99.2339 18.9465 99.6294 17.6768 100.337 16.6359C101.045 15.5951 102.023 14.8041 103.272 14.2629C104.542 13.7217 106.051 13.451 107.8 13.451C109.548 13.451 111.047 13.7217 112.296 14.2629C113.566 14.8041 114.555 15.5951 115.262 16.6359C115.97 17.6768 116.366 18.9465 116.449 20.4453C116.491 20.8825 116.511 21.3612 116.511 21.8816C116.511 22.4021 116.491 22.8808 116.449 23.318C116.366 24.7959 115.991 26.0657 115.325 27.1274C114.659 28.1682 113.691 28.9592 112.421 29.5004C111.172 30.0416 109.632 30.3122 107.8 30.3122ZM107.8 25.9096C108.57 25.9096 109.101 25.6806 109.392 25.2227C109.684 24.7647 109.85 24.0778 109.892 23.1618C109.913 22.8496 109.923 22.4229 109.923 21.8816C109.923 21.3404 109.913 20.9137 109.892 20.6014C109.85 19.7063 109.684 19.0298 109.392 18.5719C109.101 18.0931 108.57 17.8537 107.8 17.8537C107.05 17.8537 106.53 18.0931 106.239 18.5719C105.947 19.0298 105.77 19.7063 105.708 20.6014C105.687 20.9137 105.677 21.3404 105.677 21.8816C105.677 22.4229 105.687 22.8496 105.708 23.1618C105.77 24.0778 105.947 24.7647 106.239 25.2227C106.53 25.6806 107.05 25.9096 107.8 25.9096ZM127.346 30.3122C125.514 30.3122 123.963 30.0416 122.693 29.5004C121.444 28.9592 120.487 28.1682 119.82 27.1274C119.154 26.0657 118.78 24.7959 118.696 23.318C118.676 22.8808 118.665 22.4021 118.665 21.8816C118.665 21.3612 118.676 20.8825 118.696 20.4453C118.78 18.9465 119.175 17.6768 119.883 16.6359C120.591 15.5951 121.569 14.8041 122.818 14.2629C124.088 13.7217 125.597 13.451 127.346 13.451C129.094 13.451 130.593 13.7217 131.842 14.2629C133.112 14.8041 134.1 15.5951 134.808 16.6359C135.516 17.6768 135.911 18.9465 135.995 20.4453C136.036 20.8825 136.057 21.3612 136.057 21.8816C136.057 22.4021 136.036 22.8808 135.995 23.318C135.911 24.7959 135.537 26.0657 134.871 27.1274C134.205 28.1682 133.237 28.9592 131.967 29.5004C130.718 30.0416 129.177 30.3122 127.346 30.3122ZM127.346 25.9096C128.116 25.9096 128.647 25.6806 128.938 25.2227C129.229 24.7647 129.396 24.0778 129.438 23.1618C129.458 22.8496 129.469 22.4229 129.469 21.8816C129.469 21.3404 129.458 20.9137 129.438 20.6014C129.396 19.7063 129.229 19.0298 128.938 18.5719C128.647 18.0931 128.116 17.8537 127.346 17.8537C126.596 17.8537 126.076 18.0931 125.784 18.5719C125.493 19.0298 125.316 19.7063 125.254 20.6014C125.233 20.9137 125.222 21.3404 125.222 21.8816C125.222 22.4229 125.233 22.8496 125.254 23.1618C125.316 24.0778 125.493 24.7647 125.784 25.2227C126.076 25.6806 126.596 25.9096 127.346 25.9096ZM147.891 30C146.476 30 145.227 29.7918 144.144 29.3755C143.083 28.9592 142.25 28.2827 141.646 27.3459C141.063 26.3884 140.772 25.129 140.772 23.5678V18.5406H138.305C138.076 18.5406 137.879 18.4678 137.712 18.3221C137.566 18.1555 137.493 17.9578 137.493 17.7288V14.5751C137.493 14.3461 137.566 14.1588 137.712 14.0131C137.879 13.8466 138.076 13.7633 138.305 13.7633H140.772V8.64248C140.772 8.4135 140.845 8.22615 140.991 8.08044C141.157 7.91391 141.355 7.83065 141.584 7.83065H146.111C146.34 7.83065 146.528 7.91391 146.673 8.08044C146.84 8.22615 146.923 8.4135 146.923 8.64248V13.7633H150.858C151.087 13.7633 151.274 13.8466 151.42 14.0131C151.586 14.1588 151.669 14.3461 151.669 14.5751V17.7288C151.669 17.9578 151.586 18.1555 151.42 18.3221C151.274 18.4678 151.087 18.5406 150.858 18.5406H146.923V23.0369C146.923 23.6406 147.048 24.1194 147.298 24.4733C147.548 24.8063 147.943 24.9729 148.484 24.9729H151.107C151.336 24.9729 151.524 25.0561 151.669 25.2227C151.836 25.3684 151.919 25.5557 151.919 25.7847V29.1882C151.919 29.4171 151.836 29.6149 151.669 29.7814C151.524 29.9271 151.336 30 151.107 30H147.891Z" fill="#35A9F2"/>
<circle cx="26.6621" cy="21.6535" r="3.43167" fill="#35A9F2"/>
<circle cx="25.3415" cy="13.9982" r="3.1677" fill="#35A9F2"/>
<circle cx="12.1437" cy="8.19077" r="2.63975" fill="#35A9F2"/>
<circle cx="5.27879" cy="10.8305" r="2.1118" fill="#35A9F2"/>
<circle cx="1.58385" cy="17.6939" r="1.58385" fill="#35A9F2"/>
<circle cx="2.11156" cy="24.5572" r="1.0559" fill="#35A9F2"/>
<circle cx="5.80725" cy="29.3087" r="0.52795" fill="#35A9F2"/>
<circle cx="19.7983" cy="8.45475" r="2.90372" fill="#35A9F2"/>
</svg>
